<svg width="22" height="20" viewBox="0 0 22 20" fill="none" xmlns="http://www.w3.org/2000/svg">
<mask id="mask0_82_465" style="mask-type:luminance" maskUnits="userSpaceOnUse" x="0" y="0" width="22" height="20">
<path fill-rule="evenodd" clip-rule="evenodd" d="M0.763733 0H21.2362V19.501H0.763733V0Z" fill="white"/>
</mask>
<g mask="url(#mask0_82_465)">
<path fill-rule="evenodd" clip-rule="evenodd" d="M2.58745 9.12309C3.98945 13.4851 9.52845 17.0121 11.0004 17.8851C12.4774 17.0031 18.0564 13.4371 19.4134 9.12709C20.3044 6.34109 19.4774 2.81209 16.1914 1.75309C14.5994 1.24209 12.7424 1.55309 11.4604 2.54509C11.1924 2.75109 10.8204 2.75509 10.5504 2.55109C9.19245 1.53009 7.41845 1.23109 5.80145 1.75309C2.52045 2.81109 1.69645 6.34009 2.58745 9.12309ZM11.0014 19.5011C10.8774 19.5011 10.7544 19.4711 10.6424 19.4101C10.3294 19.2391 2.95645 15.1751 1.15945 9.58109C1.15845 9.58109 1.15845 9.58009 1.15845 9.58009C0.0304454 6.05809 1.28645 1.63209 5.34145 0.325088C7.24545 -0.290912 9.32045 -0.0199125 10.9984 1.03909C12.6244 0.0110876 14.7844 -0.272912 16.6504 0.325088C20.7094 1.63409 21.9694 6.05909 20.8424 9.58009C19.1034 15.1101 11.6764 19.2351 11.3614 19.4081C11.2494 19.4701 11.1254 19.5011 11.0014 19.5011Z" fill="white" fill-opacity="0.5"/>
</g>
</svg>
