<svg width="14" height="14" viewBox="0 0 14 14" fill="none" xmlns="http://www.w3.org/2000/svg">
<path fill-rule="evenodd" clip-rule="evenodd" d="M9.24568 1.45874C9.61376 1.45874 9.98126 1.51066 10.3307 1.62791C12.4838 2.32791 13.2596 4.69041 12.6115 6.75541C12.244 7.81066 11.6432 8.77374 10.8563 9.56066C9.72985 10.6515 8.49376 11.6198 7.16318 12.454L7.01735 12.5421L6.86568 12.4482C5.53043 11.6198 4.28735 10.6515 3.15043 9.55482C2.36876 8.76791 1.76735 7.81066 1.39401 6.75541C0.734847 4.69041 1.51068 2.32791 3.6871 1.61566C3.85626 1.55733 4.03068 1.51649 4.20568 1.49374H4.27568C4.4396 1.46983 4.60235 1.45874 4.76568 1.45874H4.82985C5.19735 1.46983 5.55318 1.53399 5.89793 1.65124H5.93235C5.95568 1.66233 5.97318 1.67458 5.98485 1.68566C6.11376 1.72708 6.23568 1.77374 6.35235 1.83791L6.57401 1.93708C6.62758 1.96564 6.6877 2.00929 6.73966 2.04702C6.77258 2.07092 6.80222 2.09244 6.82485 2.10624C6.83437 2.11186 6.84404 2.11751 6.8538 2.1232C6.90381 2.1524 6.95591 2.18281 6.99985 2.21649C7.64793 1.72124 8.43485 1.45291 9.24568 1.45874ZM10.7973 5.65874C11.0365 5.65233 11.2407 5.46041 11.2582 5.21482V5.14541C11.2757 4.32816 10.7804 3.58791 10.0273 3.30208C9.78818 3.21983 9.52568 3.34874 9.43818 3.59374C9.35651 3.83874 9.48485 4.10708 9.72985 4.19399C10.1038 4.33399 10.354 4.70208 10.354 5.10983V5.12791C10.3429 5.26149 10.3832 5.39041 10.4648 5.48957C10.5465 5.58874 10.669 5.64649 10.7973 5.65874Z" fill="#FB9722"/>
</svg>
