<svg width="113" height="36" viewBox="0 0 113 36" fill="none" xmlns="http://www.w3.org/2000/svg">
<g clip-path="url(#clip0_49_287)">
<path d="M27.0015 30H30V33H18C9.7155 33 3 26.2845 3 18C3 9.7155 9.7155 3 18 3C26.2845 3 33 9.7155 33 18C33.0019 20.3289 32.4607 22.6261 31.4195 24.7092C30.3782 26.7923 28.8655 28.6039 27.0015 30ZM18 15C18.7956 15 19.5587 14.6839 20.1213 14.1213C20.6839 13.5587 21 12.7956 21 12C21 11.2044 20.6839 10.4413 20.1213 9.87868C19.5587 9.31607 18.7956 9 18 9C17.2044 9 16.4413 9.31607 15.8787 9.87868C15.3161 10.4413 15 11.2044 15 12C15 12.7956 15.3161 13.5587 15.8787 14.1213C16.4413 14.6839 17.2044 15 18 15ZM12 21C12.7956 21 13.5587 20.6839 14.1213 20.1213C14.6839 19.5587 15 18.7956 15 18C15 17.2044 14.6839 16.4413 14.1213 15.8787C13.5587 15.3161 12.7956 15 12 15C11.2044 15 10.4413 15.3161 9.87868 15.8787C9.31607 16.4413 9 17.2044 9 18C9 18.7956 9.31607 19.5587 9.87868 20.1213C10.4413 20.6839 11.2044 21 12 21ZM24 21C24.7956 21 25.5587 20.6839 26.1213 20.1213C26.6839 19.5587 27 18.7956 27 18C27 17.2044 26.6839 16.4413 26.1213 15.8787C25.5587 15.3161 24.7956 15 24 15C23.2044 15 22.4413 15.3161 21.8787 15.8787C21.3161 16.4413 21 17.2044 21 18C21 18.7956 21.3161 19.5587 21.8787 20.1213C22.4413 20.6839 23.2044 21 24 21ZM18 27C18.7956 27 19.5587 26.6839 20.1213 26.1213C20.6839 25.5587 21 24.7956 21 24C21 23.2044 20.6839 22.4413 20.1213 21.8787C19.5587 21.3161 18.7956 21 18 21C17.2044 21 16.4413 21.3161 15.8787 21.8787C15.3161 22.4413 15 23.2044 15 24C15 24.7956 15.3161 25.5587 15.8787 26.1213C16.4413 26.6839 17.2044 27 18 27Z" fill="#FB9722"/>
</g>
<path d="M51.5942 23.7729C51.5942 23.9243 51.5234 24 51.3818 24H48.7891C48.6475 24 48.5767 23.9146 48.5767 23.7437C48.5767 23.2505 48.5938 22.5107 48.6279 21.5244C48.667 20.5381 48.6865 19.7983 48.6865 19.3052C48.6865 19.1636 48.6646 19.0879 48.6206 19.0781C48.5669 19.1074 48.2397 19.8618 47.6392 21.3413C47.2876 22.2104 46.936 23.0771 46.5845 23.9414C46.5356 24.0537 46.4746 24.1196 46.4014 24.1392C46.377 24.144 46.2793 24.1465 46.1084 24.1465C45.8545 24.1465 45.7031 24.0977 45.6543 24C45.3906 23.4629 45.0439 22.6816 44.6143 21.6562C44.1553 20.5723 43.811 19.7886 43.5815 19.3052C43.5718 19.2808 43.5498 19.2539 43.5156 19.2246C43.4814 19.2686 43.4644 19.3394 43.4644 19.437C43.4644 19.9155 43.4766 20.6333 43.501 21.5903C43.5254 22.5474 43.5376 23.2651 43.5376 23.7437C43.5376 23.9146 43.4692 24 43.3325 24H40.8862C40.7886 24 40.7275 23.9854 40.7031 23.9561C40.6836 23.9219 40.6738 23.8657 40.6738 23.7876C40.6738 23.2554 40.6982 22.457 40.7471 21.3926C40.8008 20.3232 40.8276 19.5225 40.8276 18.9902C40.8276 18.4238 40.8032 17.3618 40.7544 15.8042C40.7495 15.3989 40.7275 14.7959 40.6885 13.9951L40.6812 13.8706C40.6763 13.7729 40.7788 13.7241 40.9888 13.7241C41.2573 13.7241 41.6602 13.7168 42.1973 13.7021C42.7344 13.6826 43.1372 13.6729 43.4058 13.6729C43.4595 13.6729 43.5352 13.7754 43.6328 13.9805L45.7715 18.6753C45.9229 18.9927 46.0498 19.1514 46.1523 19.1514C46.2061 19.1514 46.3208 18.9683 46.4966 18.6021C46.9897 17.5767 47.7197 16.0312 48.6865 13.9658C48.7695 13.7754 48.8599 13.6802 48.9575 13.6802C49.0991 13.6802 49.3115 13.6875 49.5947 13.7021C49.8828 13.7168 50.1001 13.7241 50.2466 13.7241C50.3687 13.7241 50.5542 13.7119 50.8032 13.6875C51.0571 13.6631 51.2451 13.6509 51.3672 13.6509C51.5137 13.6509 51.5869 13.7095 51.5869 13.8267C51.5869 14.4028 51.5649 15.2646 51.521 16.4121C51.4819 17.5547 51.4624 18.4141 51.4624 18.9902C51.4624 19.5225 51.4844 20.3208 51.5283 21.3853C51.5723 22.4497 51.5942 23.2456 51.5942 23.7729ZM59.9585 20.3965C59.9585 21.5098 59.6167 22.4131 58.9331 23.1064C58.2544 23.7998 57.3608 24.1465 56.2524 24.1465C55.1782 24.1465 54.2944 23.8047 53.6011 23.1211C52.9077 22.4375 52.561 21.5586 52.561 20.4844C52.561 19.3516 52.8931 18.4336 53.5571 17.7305C54.2212 17.0225 55.1196 16.6685 56.2524 16.6685C57.356 16.6685 58.2495 17.0151 58.9331 17.7085C59.6167 18.397 59.9585 19.293 59.9585 20.3965ZM57.5562 20.3965C57.5562 20.0107 57.4365 19.6714 57.1973 19.3784C56.958 19.0806 56.6479 18.9316 56.2671 18.9316C55.8813 18.9316 55.564 19.083 55.3149 19.3857C55.0806 19.6689 54.9634 20.0059 54.9634 20.3965C54.9634 20.792 55.0806 21.1313 55.3149 21.4146C55.564 21.7173 55.8813 21.8687 56.2671 21.8687C56.6479 21.8687 56.9629 21.7173 57.2119 21.4146C57.4414 21.1313 57.5562 20.792 57.5562 20.3965ZM67.8979 18.917C67.8979 19.752 67.8711 20.2451 67.8174 20.3965C67.7051 20.7432 67.3682 21.3315 66.8066 22.1616C66.3184 22.8745 65.9009 23.4312 65.5542 23.8315C65.4272 23.9829 65.0439 24.0586 64.4043 24.0586C63.8477 24.0586 63.4863 24.0391 63.3203 24C63.2178 23.9756 63.1323 23.9268 63.064 23.8535C62.771 23.5361 62.3535 22.9844 61.8115 22.1982C61.2305 21.3535 60.8838 20.7749 60.7715 20.4624C60.6494 20.1255 60.5884 19.6201 60.5884 18.9463C60.5884 18.7559 60.5908 18.4702 60.5957 18.0894C60.6006 17.7036 60.603 17.4131 60.603 17.2178C60.603 17.0908 60.6885 17.0273 60.8594 17.0273C61.1084 17.0273 61.4819 17.0347 61.98 17.0493C62.4829 17.064 62.8589 17.0713 63.1079 17.0713C63.2202 17.0713 63.2764 17.147 63.2764 17.2983C63.2764 17.4351 63.2666 17.6426 63.2471 17.9209C63.2275 18.1943 63.2178 18.4019 63.2178 18.5435C63.2178 19.0513 63.2324 19.4663 63.2617 19.7886C63.2764 19.9546 63.418 20.2671 63.6865 20.7261C63.9648 21.2095 64.1675 21.4512 64.2944 21.4512C64.4165 21.4512 64.6118 21.2144 64.8804 20.7407C65.1392 20.2964 65.2783 19.9937 65.2979 19.8325C65.3369 19.4858 65.3564 19.0659 65.3564 18.5728C65.3564 18.4312 65.3418 18.2188 65.3125 17.9355C65.2832 17.6475 65.2686 17.4351 65.2686 17.2983C65.2686 17.147 65.3198 17.0713 65.4224 17.0713C65.5396 17.0713 65.7129 17.0737 65.9424 17.0786C66.1768 17.0835 66.3525 17.0859 66.4697 17.0859C66.5869 17.0859 66.7627 17.0762 66.9971 17.0566C67.2363 17.0371 67.4146 17.0273 67.5317 17.0273C67.6538 17.0273 67.7344 17.0908 67.7734 17.2178C67.8564 17.4961 67.8979 18.0625 67.8979 18.917ZM71.7944 15.1963C71.7944 16.0459 71.3159 16.4707 70.3589 16.4707C69.9487 16.4707 69.6094 16.3633 69.3408 16.1484C69.0479 15.9141 68.9014 15.5967 68.9014 15.1963C68.9014 14.8154 69.0527 14.5029 69.3555 14.2588C69.6338 14.0342 69.9683 13.9219 70.3589 13.9219C70.7397 13.9219 71.0693 14.0366 71.3477 14.2661C71.6455 14.5103 71.7944 14.8203 71.7944 15.1963ZM71.604 20.6382C71.604 20.9946 71.6113 21.5269 71.626 22.2349C71.6406 22.938 71.6479 23.4653 71.6479 23.8169C71.6479 23.9194 71.5869 23.9805 71.4648 24C71.2988 24.0293 70.9253 24.0439 70.3442 24.0439C69.7583 24.0439 69.3823 24.0293 69.2163 24C69.1089 23.9805 69.043 23.9487 69.0186 23.9048C69.0088 23.8853 69.0039 23.812 69.0039 23.6851C69.0039 23.3481 69.0112 22.8428 69.0259 22.1689C69.0405 21.4902 69.0479 20.98 69.0479 20.6382C69.0479 19.2515 68.9941 18.1479 68.8867 17.3276C68.877 17.2495 68.8721 17.1982 68.8721 17.1738C68.8721 17.0762 68.938 17.0273 69.0698 17.0273C69.2065 17.0273 69.4141 17.042 69.6924 17.0713C69.9756 17.1006 70.188 17.1152 70.3296 17.1152C70.4712 17.1152 70.6836 17.103 70.9668 17.0786C71.25 17.0542 71.4624 17.042 71.604 17.042C71.7212 17.042 71.7798 17.0908 71.7798 17.1885C71.7798 17.208 71.7749 17.2544 71.7651 17.3276C71.6577 18.2798 71.604 19.3833 71.604 20.6382ZM79.7339 20.0229C79.7339 20.5161 79.5752 20.7969 79.2578 20.8652C79.2041 20.875 78.6987 20.9287 77.7417 21.0264C77.1655 21.0898 76.3062 21.1655 75.1636 21.2534C75.2319 21.5708 75.4395 21.8125 75.7861 21.9785C76.0693 22.1152 76.3916 22.1836 76.7529 22.1836C77.1875 22.1836 77.6245 22.0664 78.064 21.832C78.2495 21.7148 78.4351 21.5977 78.6206 21.4805C78.7231 21.5293 78.894 21.7783 79.1333 22.2275C79.3774 22.6768 79.4995 22.9624 79.4995 23.0845C79.4995 23.1187 79.4629 23.1748 79.3896 23.2529C78.7939 23.8926 77.8687 24.2124 76.6138 24.2124C75.4517 24.2124 74.5142 23.873 73.8013 23.1943C73.0688 22.5059 72.7026 21.5854 72.7026 20.4331C72.7026 19.3101 73.0298 18.3896 73.6841 17.6719C74.3579 16.9297 75.2515 16.5586 76.3647 16.5586C77.3022 16.5586 78.0981 16.9004 78.7524 17.584C79.4067 18.2676 79.7339 19.0806 79.7339 20.0229ZM77.1704 19.5762C77.1704 19.2734 77.063 19.0073 76.8481 18.7778C76.6333 18.5483 76.377 18.4336 76.0791 18.4336C75.7715 18.4336 75.5176 18.563 75.3174 18.8218C75.1318 19.061 75.0391 19.3418 75.0391 19.6641C75.0391 19.7959 75.1074 19.8618 75.2441 19.8618C75.6055 19.8618 76.167 19.8057 76.9287 19.6934C77.0898 19.6689 77.1704 19.6299 77.1704 19.5762ZM87.7246 15.9653C87.7246 16.063 87.6709 16.1118 87.5635 16.1118C87.3779 16.1118 86.6431 16.0752 85.3589 16.002C85.3296 17.2373 85.3149 18.0991 85.3149 18.5874C85.3149 19.1636 85.3369 20.0303 85.3809 21.1875C85.4297 22.3447 85.4541 23.2114 85.4541 23.7876C85.4541 23.8804 85.4321 23.939 85.3882 23.9634C85.3735 23.9731 85.3052 23.9854 85.1831 24C84.8901 24.0391 84.4604 24.0586 83.894 24.0586C83.2642 24.0586 82.8223 24.0391 82.5684 24C82.4316 23.9756 82.3633 23.8999 82.3633 23.7729C82.3633 23.1968 82.3877 22.3325 82.4365 21.1802C82.4854 20.0278 82.5098 19.1636 82.5098 18.5874C82.5098 18.2065 82.4902 17.3569 82.4512 16.0386C81.4746 16.1362 80.6958 16.1851 80.1147 16.1851C80.0366 16.1851 79.9976 16.1606 79.9976 16.1118C79.9976 16.0483 80.0317 15.8604 80.1001 15.5479C80.1782 15.2061 80.2222 14.9985 80.2319 14.9253C80.2466 14.6958 80.2637 14.4663 80.2832 14.2368C80.3174 13.8706 80.376 13.6875 80.459 13.6875C80.4688 13.6875 80.5029 13.6899 80.5615 13.6948C81.3525 13.7974 82.522 13.8486 84.0698 13.8486C84.5093 13.8486 85.3198 13.8022 86.5015 13.7095C87.1362 13.6606 87.4561 13.6362 87.4609 13.6362C87.5586 13.6362 87.6147 13.6436 87.6294 13.6582C87.644 13.668 87.6538 13.7144 87.6587 13.7974C87.6587 13.9292 87.6538 14.1123 87.644 14.3467C87.6343 14.6055 87.6294 14.7886 87.6294 14.896C87.6294 15.0181 87.644 15.1987 87.6733 15.438C87.7075 15.6724 87.7246 15.8481 87.7246 15.9653ZM91.3647 15.1963C91.3647 16.0459 90.8862 16.4707 89.9292 16.4707C89.519 16.4707 89.1797 16.3633 88.9111 16.1484C88.6182 15.9141 88.4717 15.5967 88.4717 15.1963C88.4717 14.8154 88.623 14.5029 88.9258 14.2588C89.2041 14.0342 89.5386 13.9219 89.9292 13.9219C90.3101 13.9219 90.6396 14.0366 90.918 14.2661C91.2158 14.5103 91.3647 14.8203 91.3647 15.1963ZM91.1743 20.6382C91.1743 20.9946 91.1816 21.5269 91.1963 22.2349C91.2109 22.938 91.2183 23.4653 91.2183 23.8169C91.2183 23.9194 91.1572 23.9805 91.0352 24C90.8691 24.0293 90.4956 24.0439 89.9146 24.0439C89.3286 24.0439 88.9526 24.0293 88.7866 24C88.6792 23.9805 88.6133 23.9487 88.5889 23.9048C88.5791 23.8853 88.5742 23.812 88.5742 23.6851C88.5742 23.3481 88.5815 22.8428 88.5962 22.1689C88.6108 21.4902 88.6182 20.98 88.6182 20.6382C88.6182 19.2515 88.5645 18.1479 88.457 17.3276C88.4473 17.2495 88.4424 17.1982 88.4424 17.1738C88.4424 17.0762 88.5083 17.0273 88.6401 17.0273C88.7769 17.0273 88.9844 17.042 89.2627 17.0713C89.5459 17.1006 89.7583 17.1152 89.8999 17.1152C90.0415 17.1152 90.2539 17.103 90.5371 17.0786C90.8203 17.0542 91.0327 17.042 91.1743 17.042C91.2915 17.042 91.3501 17.0908 91.3501 17.1885C91.3501 17.208 91.3452 17.2544 91.3354 17.3276C91.228 18.2798 91.1743 19.3833 91.1743 20.6382ZM104.299 23.729C104.299 23.8999 104.226 23.9951 104.08 24.0146C103.933 24.0342 103.572 24.0439 102.996 24.0439C102.4 24.0439 102.029 24.0293 101.882 24C101.736 23.9707 101.663 23.8511 101.663 23.6411C101.663 23.4165 101.67 23.082 101.685 22.6377C101.699 22.1885 101.707 21.8516 101.707 21.627C101.707 20.7725 101.697 20.1646 101.677 19.8032C101.648 19.2222 101.372 18.9316 100.85 18.9316C100.62 18.9316 100.391 19.0293 100.161 19.2246C99.9365 19.415 99.812 19.6274 99.7876 19.8618C99.7681 20.0669 99.7583 20.6675 99.7583 21.6636C99.7583 21.8931 99.7656 22.2422 99.7803 22.7109C99.7949 23.1748 99.8022 23.5239 99.8022 23.7583C99.8022 23.9194 99.7314 24 99.5898 24H97.3706C97.2339 24 97.1655 23.8999 97.1655 23.6997C97.1655 23.4702 97.1729 23.126 97.1875 22.667C97.2021 22.208 97.2095 21.8613 97.2095 21.627C97.2095 21.4463 97.2046 21.1729 97.1948 20.8066C97.1851 20.4404 97.1802 20.1646 97.1802 19.979C97.1802 19.2808 96.9141 18.9316 96.3818 18.9316C96.167 18.9316 95.9351 19.0146 95.686 19.1807C95.4126 19.3613 95.2759 19.5518 95.2759 19.752C95.2759 20.1963 95.2783 20.8604 95.2832 21.7441C95.2881 22.6279 95.2905 23.2896 95.2905 23.729C95.2905 23.8511 95.2759 23.9268 95.2466 23.9561C95.2173 23.9854 95.1416 24.0049 95.0195 24.0146C94.7998 24.0342 94.4531 24.0439 93.9795 24.0439C93.6719 24.0439 93.3228 24.0293 92.9321 24C92.8149 23.9902 92.7441 23.9731 92.7197 23.9487C92.7002 23.9243 92.6904 23.8511 92.6904 23.729C92.6904 23.3384 92.6929 22.7549 92.6978 21.9785C92.7026 21.1973 92.7051 20.6113 92.7051 20.2207C92.7051 19.4199 92.6465 18.519 92.5293 17.5181C92.5195 17.4595 92.5146 17.4155 92.5146 17.3862C92.5146 17.3032 92.5488 17.2471 92.6172 17.2178C92.7246 17.1738 92.9272 17.1372 93.2251 17.1079C93.5913 17.0737 93.8086 17.0518 93.877 17.042C93.9258 17.0322 94.1187 16.981 94.4556 16.8882C94.6948 16.8198 94.8877 16.7856 95.0342 16.7856C95.127 16.7856 95.1758 16.9565 95.1807 17.2983C95.1855 17.6353 95.2051 17.8037 95.2393 17.8037C95.2881 17.7842 95.3442 17.75 95.4077 17.7012C95.8472 17.3594 96.1938 17.125 96.4478 16.998C96.8237 16.8174 97.2314 16.7271 97.6709 16.7271C98.1201 16.7271 98.5205 16.8271 98.8721 17.0273C99.2676 17.252 99.5239 17.5669 99.6411 17.9722C99.8999 17.6206 100.256 17.3252 100.71 17.0859C101.165 16.8467 101.606 16.7271 102.036 16.7271C102.681 16.7271 103.206 16.876 103.611 17.1738C104.07 17.5107 104.299 17.9917 104.299 18.6167C104.299 18.8755 104.292 19.2661 104.277 19.7886C104.263 20.3062 104.255 20.6943 104.255 20.9531C104.255 21.2607 104.263 21.7246 104.277 22.3447C104.292 22.96 104.299 23.4214 104.299 23.729ZM112.4 20.0229C112.4 20.5161 112.241 20.7969 111.924 20.8652C111.87 20.875 111.365 20.9287 110.408 21.0264C109.832 21.0898 108.972 21.1655 107.83 21.2534C107.898 21.5708 108.105 21.8125 108.452 21.9785C108.735 22.1152 109.058 22.1836 109.419 22.1836C109.854 22.1836 110.291 22.0664 110.73 21.832C110.916 21.7148 111.101 21.5977 111.287 21.4805C111.389 21.5293 111.56 21.7783 111.799 22.2275C112.043 22.6768 112.166 22.9624 112.166 23.0845C112.166 23.1187 112.129 23.1748 112.056 23.2529C111.46 23.8926 110.535 24.2124 109.28 24.2124C108.118 24.2124 107.18 23.873 106.467 23.1943C105.735 22.5059 105.369 21.5854 105.369 20.4331C105.369 19.3101 105.696 18.3896 106.35 17.6719C107.024 16.9297 107.917 16.5586 109.031 16.5586C109.968 16.5586 110.764 16.9004 111.418 17.584C112.073 18.2676 112.4 19.0806 112.4 20.0229ZM109.836 19.5762C109.836 19.2734 109.729 19.0073 109.514 18.7778C109.299 18.5483 109.043 18.4336 108.745 18.4336C108.438 18.4336 108.184 18.563 107.983 18.8218C107.798 19.061 107.705 19.3418 107.705 19.6641C107.705 19.7959 107.773 19.8618 107.91 19.8618C108.271 19.8618 108.833 19.8057 109.595 19.6934C109.756 19.6689 109.836 19.6299 109.836 19.5762Z" fill="white"/>
<defs>
<clipPath id="clip0_49_287">
<rect width="36" height="36" fill="white"/>
</clipPath>
</defs>
</svg>
